<?xml version="1.0" encoding="UTF-8" standalone="no"?><!DOCTYPE svg PUBLIC "-//W3C//DTD SVG 1.1//EN" "http://www.w3.org/Graphics/SVG/1.1/DTD/svg11.dtd"><svg width="100%" height="100%" viewBox="0 0 400 200" version="1.1" xmlns="http://www.w3.org/2000/svg" xmlns:xlink="http://www.w3.org/1999/xlink" xml:space="preserve" xmlns:serif="http://www.serif.com/" style="fill-rule:evenodd;clip-rule:evenodd;stroke-linejoin:round;stroke-miterlimit:2;"><path id="SvgjsG17622" d="M32.873,149.101l-0.995,-1.244c-4.851,-6.717 -11.568,-15.673 -11.568,-29.48c0,-10.698 8.21,-17.415 15.922,-17.415l4.727,0c2.239,0 4.602,0.871 6.592,2.364l2.115,1.492c0.498,0.249 1.12,0.373 1.617,0.125c0.498,-0.374 0.747,-0.871 0.747,-1.369l0,-2.114c0,-0.249 0.248,-0.498 0.621,-0.498c0.249,0 0.498,0.249 0.498,0.498l0,16.295c0,0.249 -0.249,0.497 -0.498,0.497c-0.373,0 -0.621,-0.248 -0.621,-0.497l0,-2.612c0,-7.837 -5.722,-13.186 -11.071,-13.186c-5.473,0 -11.071,6.22 -11.071,16.668c0,10.2 5.224,17.291 10.822,24.754c0.995,1.244 1.99,2.488 2.861,3.856l0.746,1.12c4.478,6.095 10.076,13.807 10.076,28.236c0,10.822 -8.21,17.415 -15.798,17.415l-4.851,0c-2.239,0 -4.478,-0.871 -6.592,-2.364l-1.991,-1.368c-0.497,-0.373 -1.119,-0.373 -1.617,-0.124c-0.497,0.249 -0.871,0.746 -0.871,1.368l0,1.99c0,0.249 -0.248,0.498 -0.497,0.498c-0.249,0 -0.498,-0.249 -0.498,-0.498l0,-16.295c0,-0.249 0.249,-0.497 0.498,-0.497c0.249,0 0.497,0.248 0.497,0.497l0,2.612c0,7.837 5.722,13.186 11.071,13.186c5.473,0 11.195,-6.22 11.195,-16.544c0,-11.32 -7.339,-21.022 -12.066,-27.366Zm29.363,44.905c-0.249,0 -0.498,-0.249 -0.498,-0.498c0,-0.248 0.249,-0.497 0.498,-0.497l2.239,0c2.488,0 4.478,-1.742 4.975,-4.23l16.171,-87.446l0.124,-0.124c0,-0.125 0.125,-0.125 0.249,-0.249l0.249,0c0,0 0.124,0 0.124,0.124l0.125,0c0,0.125 0,0.125 0.124,0.125l0,0.124l16.171,87.446c0.497,2.488 2.612,4.23 5.1,4.23l2.115,0c0.373,0 0.497,0.249 0.497,0.497c0,0.249 -0.124,0.498 -0.497,0.498l-22.266,0c-0.249,0 -0.498,-0.249 -0.498,-0.498c0,-0.248 0.249,-0.497 0.498,-0.497l2.239,0c0.995,0 1.99,-0.498 2.612,-1.244c0.622,-0.746 0.871,-1.742 0.746,-2.737l-2.363,-12.439l-18.161,0l-2.364,12.315l0,0.124c-0.124,0.995 0.125,1.991 0.747,2.737c0.622,0.746 1.617,1.244 2.612,1.244l2.239,0c0.249,0 0.498,0.249 0.498,0.497c0,0.249 -0.249,0.498 -0.498,0.498l-13.807,0Zm19.653,-66.673l-8.956,48.263l17.912,0l-8.956,-48.263Zm31.228,65.678c2.239,0 4.105,-1.866 4.105,-4.105l0,-82.72c0,-2.363 -1.866,-4.229 -4.105,-4.229l-2.239,0c-0.248,0 -0.497,-0.249 -0.497,-0.497c0,-0.249 0.249,-0.498 0.497,-0.498l22.266,0c0.249,0 0.498,0.249 0.498,0.498c0,0.248 -0.249,0.497 -0.498,0.497l-2.239,0c-2.239,0 -4.105,1.866 -4.105,4.229l0,86.825l8.459,0c6.468,0 11.693,-5.225 11.693,-11.693l0,-4.105c0,-0.249 0.248,-0.497 0.497,-0.497c0.249,0 0.498,0.248 0.498,0.497l0,16.793l-37.069,0c-0.248,0 -0.497,-0.249 -0.497,-0.498c0,-0.248 0.249,-0.497 0.497,-0.497l2.239,0Zm56.729,0.995c-8.086,0 -14.554,-6.468 -14.554,-14.554l0,-63.936c0,-7.961 6.468,-14.554 14.554,-14.554l9.453,0c8.086,0 14.554,6.593 14.554,14.554l0,63.936c0,8.086 -6.468,14.554 -14.554,14.554l-9.453,0Zm14.429,-82.222c0,-5.473 -4.354,-9.827 -9.703,-9.827c-5.348,0 -9.702,4.354 -9.702,9.827l0,71.4c0,5.473 4.354,9.827 9.702,9.827c5.349,0 9.703,-4.354 9.703,-9.827l0,-71.4Zm53.369,-5.598l0,84.959c0.995,1.119 2.488,1.866 4.105,1.866l2.239,0c0.249,0 0.498,0.249 0.498,0.497c0,0.249 -0.249,0.498 -0.498,0.498l-22.266,0c-0.248,0 -0.497,-0.249 -0.497,-0.498c0,-0.248 0.249,-0.497 0.497,-0.497l2.239,0c0.871,0 1.866,-0.498 2.488,-1.244c0.498,-0.746 0.747,-1.742 0.498,-2.612l0,-0.125l-20.773,-80.231l0,80.107c0,2.239 1.866,4.105 4.105,4.105l2.239,0c0.373,0 0.497,0.249 0.497,0.497c0,0.249 -0.124,0.498 -0.497,0.498l-13.683,0c-0.249,0 -0.498,-0.249 -0.498,-0.498c0,-0.248 0.249,-0.497 0.498,-0.497l2.239,0c2.239,0 4.105,-1.866 4.105,-4.105l0,-82.844c-0.498,-2.363 -2.613,-4.105 -4.976,-4.105l-2.239,0c-0.249,0 -0.498,-0.249 -0.498,-0.497c0,-0.249 0.249,-0.498 0.498,-0.498l22.266,0c0.249,0 0.497,0.249 0.497,0.498c0,0.248 -0.248,0.497 -0.497,0.497l-2.239,0c-0.995,0 -1.866,0.498 -2.488,1.244c-0.498,0.746 -0.746,1.617 -0.498,2.488l21.395,83.092l0.125,0.125c0,0.124 0,0.249 0.124,0.373l0,-83.217c0,-2.239 -1.866,-4.105 -4.105,-4.105l-2.239,0c-0.248,0 -0.497,-0.249 -0.497,-0.497c0,-0.249 0.249,-0.498 0.497,-0.498l13.683,0c0.373,0 0.498,0.249 0.498,0.498c0,0.248 -0.125,0.497 -0.498,0.497l-2.239,0c-2.239,0 -4.105,1.866 -4.105,4.229Z" style="fill:#fff;fill-rule:nonzero;"/><path d="M23.134,94.305c2.219,0 4.069,-1.849 4.069,-4.069l0,-81.985c0,-2.342 -1.85,-4.191 -4.069,-4.191l-2.22,0c-0.246,0 -0.493,-0.247 -0.493,-0.494c0,-0.246 0.247,-0.493 0.493,-0.493l22.441,0c7.891,0 14.303,6.534 14.303,14.425l0,17.753c0,6.657 -4.439,12.329 -10.604,13.931c6.165,1.603 10.604,7.274 10.604,13.932l0,17.753c0,8.013 -6.412,14.424 -14.303,14.424l-22.441,0c-0.246,0 -0.493,-0.246 -0.493,-0.493c0,-0.247 0.247,-0.493 0.493,-0.493l2.22,0Zm13.563,-90.245l0,44.629l1.849,0c5.425,0 9.741,-4.315 9.741,-9.616l0,-25.274c0,-5.424 -4.316,-9.739 -9.741,-9.739l-1.849,0l0,0Zm0,45.615l0,44.63l1.849,0c5.425,0 9.741,-4.315 9.741,-9.74l0,-25.15c0,-5.425 -4.316,-9.74 -9.741,-9.74l-1.849,0Zm61.779,35.014c0,5.301 4.438,9.616 9.74,9.616l0,0.986l-4.685,0c-8.015,0 -14.426,-6.411 -14.426,-14.424l0,-21.452c0,-5.425 -4.316,-9.74 -9.741,-9.74l-1.849,0l0,40.561c0,2.22 1.849,4.069 4.069,4.069l2.219,0c0.247,0 0.493,0.246 0.493,0.493c0,0.247 -0.246,0.493 -0.493,0.493l-22.07,0c-0.247,0 -0.494,-0.246 -0.494,-0.493c0,-0.247 0.247,-0.493 0.494,-0.493l2.219,0c2.219,0 4.069,-1.849 4.069,-4.069l0,-81.985c0,-2.342 -1.85,-4.191 -4.069,-4.191l-2.219,0c-0.247,0 -0.494,-0.247 -0.494,-0.494c0,-0.246 0.247,-0.493 0.494,-0.493l22.44,0c7.891,0 14.303,6.534 14.303,14.425l0,17.753c0,6.657 -4.439,12.329 -10.604,13.931c6.165,1.603 10.604,7.274 10.604,13.932l0,21.575l0,0Zm-20.961,-36l1.849,0c5.425,0 9.741,-4.315 9.741,-9.616l0,-25.274c0,-5.424 -4.316,-9.739 -9.741,-9.739l-1.849,0l0,44.629l0,0Zm33.297,45.616c2.219,0 4.068,-1.849 4.068,-4.069l0,-81.985c0,-2.342 -1.849,-4.191 -4.068,-4.191l-2.22,0c-0.246,0 -0.493,-0.247 -0.493,-0.494c0,-0.246 0.247,-0.493 0.493,-0.493l22.441,0c7.891,0 14.302,6.534 14.302,14.425l0,17.753c0,6.657 -4.438,12.329 -10.603,13.931c6.165,1.603 10.603,7.274 10.603,13.932l0,17.753c0,8.013 -6.411,14.424 -14.302,14.424l-22.441,0c-0.246,0 -0.493,-0.246 -0.493,-0.493c0,-0.247 0.247,-0.493 0.493,-0.493l2.22,0Zm13.562,-90.245l0,44.629l1.85,0c5.425,0 9.741,-4.315 9.741,-9.616l0,-25.274c0,-5.424 -4.316,-9.739 -9.741,-9.739l-1.85,0l0,0Zm0,45.615l0,44.63l1.85,0c5.425,0 9.741,-4.315 9.741,-9.74l0,-25.15c0,-5.425 -4.316,-9.74 -9.741,-9.74l-1.85,0Z" style="fill:#fff;fill-rule:nonzero;"/></svg>